<mxfile host="app.diagrams.net" modified="2024-09-10T02:09:04.362Z" agent="Mozilla/5.0 (Windows NT 10.0; Win64; x64) AppleWebKit/537.36 (KHTML, like Gecko) Chrome/128.0.0.0 Safari/537.36" etag="bjpwMuV79QUhoogMqqdv" version="21.7.5" type="device">
  <diagram name="Page-1" id="TVCrLy3x2SfaSbbehY96">
    <mxGraphModel dx="2294" dy="1892" grid="1" gridSize="10" guides="1" tooltips="1" connect="1" arrows="1" fold="1" page="1" pageScale="1" pageWidth="827" pageHeight="1169" math="0" shadow="0">
      <root>
        <mxCell id="0" />
        <mxCell id="1" parent="0" />
        <mxCell id="3x_LlH8_5D73zO7Ssh2H-61" value="" style="rounded=1;whiteSpace=wrap;html=1;fillColor=#dae8fc;strokeColor=#6c8ebf;" vertex="1" parent="1">
          <mxGeometry x="350" y="-100" width="760" height="610" as="geometry" />
        </mxCell>
        <mxCell id="3x_LlH8_5D73zO7Ssh2H-1" value="" style="rounded=1;whiteSpace=wrap;html=1;fillColor=#dae8fc;strokeColor=#6c8ebf;" vertex="1" parent="1">
          <mxGeometry x="-710" y="-100" width="760" height="590" as="geometry" />
        </mxCell>
        <mxCell id="3x_LlH8_5D73zO7Ssh2H-3" value="" style="shape=mxgraph.cisco.routers.router;sketch=0;html=1;pointerEvents=1;dashed=0;fillColor=#036897;strokeColor=#ffffff;strokeWidth=2;verticalLabelPosition=bottom;verticalAlign=top;align=center;outlineConnect=0;" vertex="1" parent="1">
          <mxGeometry x="-370" width="68" height="43" as="geometry" />
        </mxCell>
        <mxCell id="3x_LlH8_5D73zO7Ssh2H-4" value="1-2x Router" style="text;html=1;strokeColor=none;fillColor=none;align=center;verticalAlign=middle;whiteSpace=wrap;rounded=0;" vertex="1" parent="1">
          <mxGeometry x="-470" y="6.5" width="60" height="30" as="geometry" />
        </mxCell>
        <mxCell id="3x_LlH8_5D73zO7Ssh2H-5" value="" style="shape=mxgraph.cisco.switches.layer_3_switch;sketch=0;html=1;pointerEvents=1;dashed=0;fillColor=#036897;strokeColor=#ffffff;strokeWidth=2;verticalLabelPosition=bottom;verticalAlign=top;align=center;outlineConnect=0;" vertex="1" parent="1">
          <mxGeometry x="-320" y="76" width="64" height="64" as="geometry" />
        </mxCell>
        <mxCell id="3x_LlH8_5D73zO7Ssh2H-6" value="" style="shape=mxgraph.cisco.switches.layer_3_switch;sketch=0;html=1;pointerEvents=1;dashed=0;fillColor=#036897;strokeColor=#ffffff;strokeWidth=2;verticalLabelPosition=bottom;verticalAlign=top;align=center;outlineConnect=0;" vertex="1" parent="1">
          <mxGeometry x="-430" y="76" width="64" height="64" as="geometry" />
        </mxCell>
        <mxCell id="3x_LlH8_5D73zO7Ssh2H-7" value="2x x L3 Switch (Distribution layer)" style="text;html=1;strokeColor=none;fillColor=none;align=center;verticalAlign=middle;whiteSpace=wrap;rounded=0;" vertex="1" parent="1">
          <mxGeometry x="-500" y="93" width="60" height="30" as="geometry" />
        </mxCell>
        <mxCell id="3x_LlH8_5D73zO7Ssh2H-8" value="" style="endArrow=none;html=1;rounded=0;" edge="1" parent="1" source="3x_LlH8_5D73zO7Ssh2H-5" target="3x_LlH8_5D73zO7Ssh2H-3">
          <mxGeometry width="50" height="50" relative="1" as="geometry">
            <mxPoint x="-290" y="86.5" as="sourcePoint" />
            <mxPoint x="-240" y="36.5" as="targetPoint" />
          </mxGeometry>
        </mxCell>
        <mxCell id="3x_LlH8_5D73zO7Ssh2H-9" value="" style="endArrow=none;html=1;rounded=0;" edge="1" parent="1" source="3x_LlH8_5D73zO7Ssh2H-6" target="3x_LlH8_5D73zO7Ssh2H-3">
          <mxGeometry width="50" height="50" relative="1" as="geometry">
            <mxPoint x="-400" y="76" as="sourcePoint" />
            <mxPoint x="-350" y="26" as="targetPoint" />
          </mxGeometry>
        </mxCell>
        <mxCell id="3x_LlH8_5D73zO7Ssh2H-10" value="" style="sketch=0;outlineConnect=0;fontColor=#232F3E;gradientColor=none;fillColor=#232F3D;strokeColor=none;dashed=0;verticalLabelPosition=bottom;verticalAlign=top;align=center;html=1;fontSize=12;fontStyle=0;aspect=fixed;pointerEvents=1;shape=mxgraph.aws4.traditional_server;" vertex="1" parent="1">
          <mxGeometry x="-155" y="62" width="45" height="78" as="geometry" />
        </mxCell>
        <mxCell id="3x_LlH8_5D73zO7Ssh2H-11" value="" style="sketch=0;outlineConnect=0;fontColor=#232F3E;gradientColor=none;fillColor=#232F3D;strokeColor=none;dashed=0;verticalLabelPosition=bottom;verticalAlign=top;align=center;html=1;fontSize=12;fontStyle=0;aspect=fixed;pointerEvents=1;shape=mxgraph.aws4.traditional_server;" vertex="1" parent="1">
          <mxGeometry x="-180" y="-40" width="45" height="78" as="geometry" />
        </mxCell>
        <mxCell id="3x_LlH8_5D73zO7Ssh2H-12" value="VCC" style="rounded=0;whiteSpace=wrap;html=1;fillColor=#f8cecc;strokeColor=#b85450;" vertex="1" parent="1">
          <mxGeometry x="-400" y="-100" width="120" height="60" as="geometry" />
        </mxCell>
        <mxCell id="3x_LlH8_5D73zO7Ssh2H-13" value="" style="endArrow=none;html=1;rounded=0;" edge="1" parent="1" target="3x_LlH8_5D73zO7Ssh2H-10">
          <mxGeometry width="50" height="50" relative="1" as="geometry">
            <mxPoint x="-265" y="100" as="sourcePoint" />
            <mxPoint x="-215" y="50" as="targetPoint" />
          </mxGeometry>
        </mxCell>
        <mxCell id="3x_LlH8_5D73zO7Ssh2H-14" value="" style="endArrow=none;html=1;rounded=0;" edge="1" parent="1" target="3x_LlH8_5D73zO7Ssh2H-11">
          <mxGeometry width="50" height="50" relative="1" as="geometry">
            <mxPoint x="-380" y="100" as="sourcePoint" />
            <mxPoint x="-330" y="50" as="targetPoint" />
          </mxGeometry>
        </mxCell>
        <mxCell id="3x_LlH8_5D73zO7Ssh2H-15" value="" style="endArrow=none;html=1;rounded=0;" edge="1" parent="1" target="3x_LlH8_5D73zO7Ssh2H-10">
          <mxGeometry width="50" height="50" relative="1" as="geometry">
            <mxPoint x="-370" y="123" as="sourcePoint" />
            <mxPoint x="-320" y="73" as="targetPoint" />
          </mxGeometry>
        </mxCell>
        <mxCell id="3x_LlH8_5D73zO7Ssh2H-16" value="" style="endArrow=none;html=1;rounded=0;" edge="1" parent="1" target="3x_LlH8_5D73zO7Ssh2H-11">
          <mxGeometry width="50" height="50" relative="1" as="geometry">
            <mxPoint x="-280" y="86.5" as="sourcePoint" />
            <mxPoint x="-230" y="36.5" as="targetPoint" />
          </mxGeometry>
        </mxCell>
        <mxCell id="3x_LlH8_5D73zO7Ssh2H-17" value="2x Server" style="text;html=1;strokeColor=none;fillColor=none;align=center;verticalAlign=middle;whiteSpace=wrap;rounded=0;" vertex="1" parent="1">
          <mxGeometry x="-110" y="6.5" width="60" height="30" as="geometry" />
        </mxCell>
        <mxCell id="3x_LlH8_5D73zO7Ssh2H-20" value="" style="shape=mxgraph.cisco.switches.workgroup_switch;sketch=0;html=1;pointerEvents=1;dashed=0;fillColor=#036897;strokeColor=#ffffff;strokeWidth=2;verticalLabelPosition=bottom;verticalAlign=top;align=center;outlineConnect=0;" vertex="1" parent="1">
          <mxGeometry x="-401.5" y="250" width="101" height="50" as="geometry" />
        </mxCell>
        <mxCell id="3x_LlH8_5D73zO7Ssh2H-24" value="" style="shape=mxgraph.cisco.computers_and_peripherals.pc;sketch=0;html=1;pointerEvents=1;dashed=0;fillColor=#036897;strokeColor=#ffffff;strokeWidth=2;verticalLabelPosition=bottom;verticalAlign=top;align=center;outlineConnect=0;" vertex="1" parent="1">
          <mxGeometry x="-390" y="340" width="78" height="70" as="geometry" />
        </mxCell>
        <mxCell id="3x_LlH8_5D73zO7Ssh2H-25" value="&lt;font style=&quot;font-size: 20px;&quot;&gt;First Floor&lt;/font&gt;" style="text;html=1;strokeColor=none;fillColor=none;align=center;verticalAlign=middle;whiteSpace=wrap;rounded=0;" vertex="1" parent="1">
          <mxGeometry x="-610" y="-60" width="60" height="30" as="geometry" />
        </mxCell>
        <mxCell id="3x_LlH8_5D73zO7Ssh2H-28" value="" style="endArrow=none;html=1;rounded=0;" edge="1" parent="1" target="3x_LlH8_5D73zO7Ssh2H-12">
          <mxGeometry width="50" height="50" relative="1" as="geometry">
            <mxPoint x="-348.5" y="10" as="sourcePoint" />
            <mxPoint x="-298.5" y="-40" as="targetPoint" />
          </mxGeometry>
        </mxCell>
        <mxCell id="3x_LlH8_5D73zO7Ssh2H-39" value="VCC" style="rounded=0;whiteSpace=wrap;html=1;fillColor=#f8cecc;strokeColor=#b85450;" vertex="1" parent="1">
          <mxGeometry x="670" y="-100" width="120" height="60" as="geometry" />
        </mxCell>
        <mxCell id="3x_LlH8_5D73zO7Ssh2H-53" value="" style="endArrow=none;html=1;rounded=0;" edge="1" parent="1" target="3x_LlH8_5D73zO7Ssh2H-39">
          <mxGeometry width="50" height="50" relative="1" as="geometry">
            <mxPoint x="722.1379310344832" y="50" as="sourcePoint" />
            <mxPoint x="771.5" y="-40" as="targetPoint" />
          </mxGeometry>
        </mxCell>
        <mxCell id="3x_LlH8_5D73zO7Ssh2H-54" value="" style="endArrow=none;html=1;rounded=0;" edge="1" parent="1" source="3x_LlH8_5D73zO7Ssh2H-24" target="3x_LlH8_5D73zO7Ssh2H-20">
          <mxGeometry width="50" height="50" relative="1" as="geometry">
            <mxPoint x="-370" y="410" as="sourcePoint" />
            <mxPoint x="-320" y="360" as="targetPoint" />
          </mxGeometry>
        </mxCell>
        <mxCell id="3x_LlH8_5D73zO7Ssh2H-18" value="" style="shape=mxgraph.cisco.switches.layer_3_switch;sketch=0;html=1;pointerEvents=1;dashed=0;fillColor=#036897;strokeColor=#ffffff;strokeWidth=2;verticalLabelPosition=bottom;verticalAlign=top;align=center;outlineConnect=0;" vertex="1" parent="1">
          <mxGeometry x="698" y="38" width="64" height="64" as="geometry" />
        </mxCell>
        <mxCell id="3x_LlH8_5D73zO7Ssh2H-56" value="" style="endArrow=none;html=1;rounded=0;" edge="1" parent="1" source="3x_LlH8_5D73zO7Ssh2H-20" target="3x_LlH8_5D73zO7Ssh2H-6">
          <mxGeometry width="50" height="50" relative="1" as="geometry">
            <mxPoint x="-365" y="300" as="sourcePoint" />
            <mxPoint x="-315" y="250" as="targetPoint" />
          </mxGeometry>
        </mxCell>
        <mxCell id="3x_LlH8_5D73zO7Ssh2H-57" value="" style="endArrow=none;html=1;rounded=0;" edge="1" parent="1" source="3x_LlH8_5D73zO7Ssh2H-20" target="3x_LlH8_5D73zO7Ssh2H-5">
          <mxGeometry width="50" height="50" relative="1" as="geometry">
            <mxPoint x="-340" y="300" as="sourcePoint" />
            <mxPoint x="-290" y="250" as="targetPoint" />
          </mxGeometry>
        </mxCell>
        <mxCell id="3x_LlH8_5D73zO7Ssh2H-58" value="" style="shape=mxgraph.cisco.switches.workgroup_switch;sketch=0;html=1;pointerEvents=1;dashed=0;fillColor=#036897;strokeColor=#ffffff;strokeWidth=2;verticalLabelPosition=bottom;verticalAlign=top;align=center;outlineConnect=0;" vertex="1" parent="1">
          <mxGeometry x="540" y="180" width="101" height="50" as="geometry" />
        </mxCell>
        <mxCell id="3x_LlH8_5D73zO7Ssh2H-59" value="" style="shape=mxgraph.cisco.computers_and_peripherals.pc;sketch=0;html=1;pointerEvents=1;dashed=0;fillColor=#036897;strokeColor=#ffffff;strokeWidth=2;verticalLabelPosition=bottom;verticalAlign=top;align=center;outlineConnect=0;" vertex="1" parent="1">
          <mxGeometry x="610" y="400" width="78" height="70" as="geometry" />
        </mxCell>
        <mxCell id="3x_LlH8_5D73zO7Ssh2H-64" value="" style="endArrow=none;html=1;rounded=0;exitX=1;exitY=0.5;exitDx=0;exitDy=0;" edge="1" parent="1" source="3x_LlH8_5D73zO7Ssh2H-65">
          <mxGeometry width="50" height="50" relative="1" as="geometry">
            <mxPoint x="650" y="123" as="sourcePoint" />
            <mxPoint x="700" y="73" as="targetPoint" />
          </mxGeometry>
        </mxCell>
        <mxCell id="3x_LlH8_5D73zO7Ssh2H-65" value="HCC" style="rounded=1;whiteSpace=wrap;html=1;fillColor=#ffe6cc;strokeColor=#d79b00;" vertex="1" parent="1">
          <mxGeometry x="540" y="42" width="120" height="60" as="geometry" />
        </mxCell>
        <mxCell id="3x_LlH8_5D73zO7Ssh2H-66" value="" style="endArrow=none;html=1;rounded=0;entryX=0.5;entryY=0;entryDx=0;entryDy=0;" edge="1" parent="1" target="3x_LlH8_5D73zO7Ssh2H-39">
          <mxGeometry width="50" height="50" relative="1" as="geometry">
            <mxPoint x="-340" y="-100" as="sourcePoint" />
            <mxPoint x="-290" y="-150" as="targetPoint" />
            <Array as="points">
              <mxPoint x="-340" y="-210" />
              <mxPoint x="730" y="-210" />
            </Array>
          </mxGeometry>
        </mxCell>
        <mxCell id="3x_LlH8_5D73zO7Ssh2H-67" value="" style="endArrow=none;html=1;rounded=0;" edge="1" parent="1" target="3x_LlH8_5D73zO7Ssh2H-65">
          <mxGeometry width="50" height="50" relative="1" as="geometry">
            <mxPoint x="600" y="185" as="sourcePoint" />
            <mxPoint x="640" y="210" as="targetPoint" />
          </mxGeometry>
        </mxCell>
        <mxCell id="3x_LlH8_5D73zO7Ssh2H-68" value="HCC" style="rounded=1;whiteSpace=wrap;html=1;fillColor=#ffe6cc;strokeColor=#d79b00;" vertex="1" parent="1">
          <mxGeometry x="589" y="300" width="120" height="60" as="geometry" />
        </mxCell>
        <mxCell id="3x_LlH8_5D73zO7Ssh2H-69" value="HCC" style="rounded=1;whiteSpace=wrap;html=1;fillColor=#ffe6cc;strokeColor=#d79b00;" vertex="1" parent="1">
          <mxGeometry x="688" y="170" width="120" height="60" as="geometry" />
        </mxCell>
        <mxCell id="3x_LlH8_5D73zO7Ssh2H-70" value="" style="endArrow=none;html=1;rounded=0;" edge="1" parent="1" target="3x_LlH8_5D73zO7Ssh2H-68">
          <mxGeometry width="50" height="50" relative="1" as="geometry">
            <mxPoint x="648" y="400" as="sourcePoint" />
            <mxPoint x="698" y="350" as="targetPoint" />
          </mxGeometry>
        </mxCell>
        <mxCell id="3x_LlH8_5D73zO7Ssh2H-71" value="" style="endArrow=none;html=1;rounded=0;" edge="1" parent="1" source="3x_LlH8_5D73zO7Ssh2H-58" target="3x_LlH8_5D73zO7Ssh2H-69">
          <mxGeometry width="50" height="50" relative="1" as="geometry">
            <mxPoint x="770" y="190" as="sourcePoint" />
            <mxPoint x="820" y="140" as="targetPoint" />
          </mxGeometry>
        </mxCell>
        <mxCell id="3x_LlH8_5D73zO7Ssh2H-72" value="" style="shape=mxgraph.cisco.computers_and_peripherals.pc;sketch=0;html=1;pointerEvents=1;dashed=0;fillColor=#036897;strokeColor=#ffffff;strokeWidth=2;verticalLabelPosition=bottom;verticalAlign=top;align=center;outlineConnect=0;" vertex="1" parent="1">
          <mxGeometry x="1000" y="170" width="78" height="70" as="geometry" />
        </mxCell>
        <mxCell id="3x_LlH8_5D73zO7Ssh2H-73" value="" style="endArrow=none;html=1;rounded=0;" edge="1" parent="1" target="3x_LlH8_5D73zO7Ssh2H-72">
          <mxGeometry width="50" height="50" relative="1" as="geometry">
            <mxPoint x="970" y="220" as="sourcePoint" />
            <mxPoint x="1020" y="170" as="targetPoint" />
          </mxGeometry>
        </mxCell>
        <mxCell id="3x_LlH8_5D73zO7Ssh2H-74" value="" style="endArrow=none;html=1;rounded=0;" edge="1" parent="1" target="3x_LlH8_5D73zO7Ssh2H-69">
          <mxGeometry width="50" height="50" relative="1" as="geometry">
            <mxPoint x="670" y="300" as="sourcePoint" />
            <mxPoint x="720" y="250" as="targetPoint" />
          </mxGeometry>
        </mxCell>
        <mxCell id="3x_LlH8_5D73zO7Ssh2H-75" value="HCC" style="rounded=1;whiteSpace=wrap;html=1;fillColor=#ffe6cc;strokeColor=#d79b00;" vertex="1" parent="1">
          <mxGeometry x="860" y="180" width="120" height="60" as="geometry" />
        </mxCell>
        <mxCell id="3x_LlH8_5D73zO7Ssh2H-76" value="" style="endArrow=none;html=1;rounded=0;" edge="1" parent="1" target="3x_LlH8_5D73zO7Ssh2H-75">
          <mxGeometry width="50" height="50" relative="1" as="geometry">
            <mxPoint x="808" y="200" as="sourcePoint" />
            <mxPoint x="858" y="150" as="targetPoint" />
          </mxGeometry>
        </mxCell>
      </root>
    </mxGraphModel>
  </diagram>
</mxfile>
